<mxfile host="Electron" modified="2023-09-24T02:16:10.868Z" agent="Mozilla/5.0 (X11; Linux x86_64) AppleWebKit/537.36 (KHTML, like Gecko) draw.io/21.5.0 Chrome/112.0.5615.204 Electron/24.5.1 Safari/537.36" etag="DhkHG_20HEbpFZ5ltq-8" version="21.5.0" type="device">
  <diagram name="Page-1" id="XOCJdj2pC0HdgqZHWzAD">
    <mxGraphModel dx="432" dy="270" grid="1" gridSize="10" guides="1" tooltips="1" connect="1" arrows="1" fold="1" page="1" pageScale="1" pageWidth="850" pageHeight="1100" math="1" shadow="0">
      <root>
        <mxCell id="0" />
        <mxCell id="1" parent="0" />
        <mxCell id="m3TGQQSKfFaG7IauIRE3-1" value="\((1, 0)\)" style="text;html=1;strokeColor=none;fillColor=none;align=center;verticalAlign=middle;whiteSpace=wrap;rounded=0;" vertex="1" parent="1">
          <mxGeometry x="110" y="140" width="40" height="20" as="geometry" />
        </mxCell>
        <mxCell id="m3TGQQSKfFaG7IauIRE3-2" value="\((0, 0)\)" style="text;html=1;strokeColor=none;fillColor=none;align=center;verticalAlign=middle;whiteSpace=wrap;rounded=0;" vertex="1" parent="1">
          <mxGeometry x="110" y="80" width="40" height="20" as="geometry" />
        </mxCell>
        <mxCell id="m3TGQQSKfFaG7IauIRE3-3" value="\((0, 1)\)" style="text;html=1;strokeColor=none;fillColor=none;align=center;verticalAlign=middle;whiteSpace=wrap;rounded=0;" vertex="1" parent="1">
          <mxGeometry x="110" y="110" width="40" height="20" as="geometry" />
        </mxCell>
        <mxCell id="m3TGQQSKfFaG7IauIRE3-4" value="\((1, 1)\)" style="text;html=1;strokeColor=none;fillColor=none;align=center;verticalAlign=middle;whiteSpace=wrap;rounded=0;" vertex="1" parent="1">
          <mxGeometry x="110" y="170" width="40" height="20" as="geometry" />
        </mxCell>
        <mxCell id="m3TGQQSKfFaG7IauIRE3-5" value="" style="shape=waypoint;sketch=0;fillStyle=solid;size=6;pointerEvents=1;points=[];fillColor=none;resizable=0;rotatable=0;perimeter=centerPerimeter;snapToPoint=1;" vertex="1" parent="1">
          <mxGeometry x="150" y="80" width="20" height="20" as="geometry" />
        </mxCell>
        <mxCell id="m3TGQQSKfFaG7IauIRE3-6" style="edgeStyle=orthogonalEdgeStyle;rounded=0;orthogonalLoop=1;jettySize=auto;html=1;endArrow=none;endFill=0;" edge="1" parent="1" source="m3TGQQSKfFaG7IauIRE3-7" target="m3TGQQSKfFaG7IauIRE3-13">
          <mxGeometry relative="1" as="geometry" />
        </mxCell>
        <mxCell id="m3TGQQSKfFaG7IauIRE3-7" value="" style="shape=waypoint;sketch=0;fillStyle=solid;size=6;pointerEvents=1;points=[];fillColor=none;resizable=0;rotatable=0;perimeter=centerPerimeter;snapToPoint=1;" vertex="1" parent="1">
          <mxGeometry x="150" y="110" width="20" height="20" as="geometry" />
        </mxCell>
        <mxCell id="m3TGQQSKfFaG7IauIRE3-8" style="rounded=0;orthogonalLoop=1;jettySize=auto;html=1;endArrow=none;endFill=0;" edge="1" parent="1" source="m3TGQQSKfFaG7IauIRE3-9" target="m3TGQQSKfFaG7IauIRE3-15">
          <mxGeometry relative="1" as="geometry" />
        </mxCell>
        <mxCell id="m3TGQQSKfFaG7IauIRE3-9" value="" style="shape=waypoint;sketch=0;fillStyle=solid;size=6;pointerEvents=1;points=[];fillColor=none;resizable=0;rotatable=0;perimeter=centerPerimeter;snapToPoint=1;" vertex="1" parent="1">
          <mxGeometry x="150" y="140" width="20" height="20" as="geometry" />
        </mxCell>
        <mxCell id="m3TGQQSKfFaG7IauIRE3-10" style="rounded=0;orthogonalLoop=1;jettySize=auto;html=1;jumpStyle=gap;jumpSize=8;endArrow=none;endFill=0;" edge="1" parent="1" source="m3TGQQSKfFaG7IauIRE3-11" target="m3TGQQSKfFaG7IauIRE3-13">
          <mxGeometry relative="1" as="geometry" />
        </mxCell>
        <mxCell id="m3TGQQSKfFaG7IauIRE3-11" value="" style="shape=waypoint;sketch=0;fillStyle=solid;size=6;pointerEvents=1;points=[];fillColor=none;resizable=0;rotatable=0;perimeter=centerPerimeter;snapToPoint=1;" vertex="1" parent="1">
          <mxGeometry x="150" y="170" width="20" height="20" as="geometry" />
        </mxCell>
        <mxCell id="m3TGQQSKfFaG7IauIRE3-12" value="\(0\)" style="text;html=1;strokeColor=none;fillColor=none;align=center;verticalAlign=middle;whiteSpace=wrap;rounded=0;" vertex="1" parent="1">
          <mxGeometry x="250" y="110" width="20" height="20" as="geometry" />
        </mxCell>
        <mxCell id="m3TGQQSKfFaG7IauIRE3-13" value="" style="shape=waypoint;sketch=0;fillStyle=solid;size=6;pointerEvents=1;points=[];fillColor=none;resizable=0;rotatable=0;perimeter=centerPerimeter;snapToPoint=1;" vertex="1" parent="1">
          <mxGeometry x="230" y="110" width="20" height="20" as="geometry" />
        </mxCell>
        <mxCell id="m3TGQQSKfFaG7IauIRE3-14" value="\(1\)" style="text;html=1;strokeColor=none;fillColor=none;align=center;verticalAlign=middle;whiteSpace=wrap;rounded=0;" vertex="1" parent="1">
          <mxGeometry x="250" y="140" width="20" height="20" as="geometry" />
        </mxCell>
        <mxCell id="m3TGQQSKfFaG7IauIRE3-15" value="" style="shape=waypoint;sketch=0;fillStyle=solid;size=6;pointerEvents=1;points=[];fillColor=none;resizable=0;rotatable=0;perimeter=centerPerimeter;snapToPoint=1;" vertex="1" parent="1">
          <mxGeometry x="230" y="140" width="20" height="20" as="geometry" />
        </mxCell>
        <mxCell id="m3TGQQSKfFaG7IauIRE3-16" value="" style="endArrow=none;html=1;rounded=0;endFill=0;midArrow=classic;" edge="1" parent="1" source="m3TGQQSKfFaG7IauIRE3-5" target="m3TGQQSKfFaG7IauIRE3-13">
          <mxGeometry width="50" height="50" relative="1" as="geometry">
            <mxPoint x="210" y="90" as="sourcePoint" />
            <mxPoint x="260" y="40" as="targetPoint" />
          </mxGeometry>
        </mxCell>
        <mxCell id="m3TGQQSKfFaG7IauIRE3-17" value="" style="endArrow=open;html=1;rounded=0;endFill=0;midArrow=classic;" edge="1" parent="1">
          <mxGeometry width="50" height="50" relative="1" as="geometry">
            <mxPoint x="192" y="102" as="sourcePoint" />
            <mxPoint x="200" y="105" as="targetPoint" />
          </mxGeometry>
        </mxCell>
        <mxCell id="m3TGQQSKfFaG7IauIRE3-18" value="" style="endArrow=open;html=1;rounded=0;endFill=0;midArrow=classic;" edge="1" parent="1">
          <mxGeometry width="50" height="50" relative="1" as="geometry">
            <mxPoint x="190" y="119.98000000000002" as="sourcePoint" />
            <mxPoint x="200" y="119.98000000000002" as="targetPoint" />
          </mxGeometry>
        </mxCell>
        <mxCell id="m3TGQQSKfFaG7IauIRE3-19" value="" style="endArrow=open;html=1;rounded=0;endFill=0;midArrow=classic;" edge="1" parent="1">
          <mxGeometry width="50" height="50" relative="1" as="geometry">
            <mxPoint x="220" y="135" as="sourcePoint" />
            <mxPoint x="228" y="129" as="targetPoint" />
          </mxGeometry>
        </mxCell>
        <mxCell id="m3TGQQSKfFaG7IauIRE3-20" value="" style="endArrow=open;html=1;rounded=0;endFill=0;midArrow=classic;" edge="1" parent="1">
          <mxGeometry width="50" height="50" relative="1" as="geometry">
            <mxPoint x="210" y="149.93" as="sourcePoint" />
            <mxPoint x="220" y="149.93" as="targetPoint" />
          </mxGeometry>
        </mxCell>
        <mxCell id="m3TGQQSKfFaG7IauIRE3-31" value="" style="shape=waypoint;sketch=0;fillStyle=solid;size=6;pointerEvents=1;points=[];fillColor=none;resizable=0;rotatable=0;perimeter=centerPerimeter;snapToPoint=1;" vertex="1" parent="1">
          <mxGeometry x="140" y="390" width="20" height="20" as="geometry" />
        </mxCell>
        <mxCell id="m3TGQQSKfFaG7IauIRE3-32" value="" style="shape=waypoint;sketch=0;fillStyle=solid;size=6;pointerEvents=1;points=[];fillColor=none;resizable=0;rotatable=0;perimeter=centerPerimeter;snapToPoint=1;" vertex="1" parent="1">
          <mxGeometry x="140" y="420" width="20" height="20" as="geometry" />
        </mxCell>
        <mxCell id="m3TGQQSKfFaG7IauIRE3-33" value="" style="shape=waypoint;sketch=0;fillStyle=solid;size=6;pointerEvents=1;points=[];fillColor=none;resizable=0;rotatable=0;perimeter=centerPerimeter;snapToPoint=1;" vertex="1" parent="1">
          <mxGeometry x="140" y="450" width="20" height="20" as="geometry" />
        </mxCell>
        <mxCell id="m3TGQQSKfFaG7IauIRE3-35" value="\(a\)" style="text;html=1;strokeColor=none;fillColor=none;align=center;verticalAlign=middle;whiteSpace=wrap;rounded=0;" vertex="1" parent="1">
          <mxGeometry x="120" y="390" width="30" height="20" as="geometry" />
        </mxCell>
        <mxCell id="m3TGQQSKfFaG7IauIRE3-36" value="\(b\)" style="text;html=1;strokeColor=none;fillColor=none;align=center;verticalAlign=middle;whiteSpace=wrap;rounded=0;" vertex="1" parent="1">
          <mxGeometry x="120" y="420" width="30" height="20" as="geometry" />
        </mxCell>
        <mxCell id="m3TGQQSKfFaG7IauIRE3-37" value="\(c\)" style="text;html=1;strokeColor=none;fillColor=none;align=center;verticalAlign=middle;whiteSpace=wrap;rounded=0;" vertex="1" parent="1">
          <mxGeometry x="120" y="450" width="30" height="20" as="geometry" />
        </mxCell>
        <mxCell id="m3TGQQSKfFaG7IauIRE3-39" value="" style="shape=waypoint;sketch=0;fillStyle=solid;size=6;pointerEvents=1;points=[];fillColor=none;resizable=0;rotatable=0;perimeter=centerPerimeter;snapToPoint=1;" vertex="1" parent="1">
          <mxGeometry x="200" y="370" width="20" height="20" as="geometry" />
        </mxCell>
        <mxCell id="m3TGQQSKfFaG7IauIRE3-40" value="" style="shape=waypoint;sketch=0;fillStyle=solid;size=6;pointerEvents=1;points=[];fillColor=none;resizable=0;rotatable=0;perimeter=centerPerimeter;snapToPoint=1;" vertex="1" parent="1">
          <mxGeometry x="200" y="400" width="20" height="20" as="geometry" />
        </mxCell>
        <mxCell id="m3TGQQSKfFaG7IauIRE3-41" value="" style="shape=waypoint;sketch=0;fillStyle=solid;size=6;pointerEvents=1;points=[];fillColor=none;resizable=0;rotatable=0;perimeter=centerPerimeter;snapToPoint=1;" vertex="1" parent="1">
          <mxGeometry x="200" y="430" width="20" height="20" as="geometry" />
        </mxCell>
        <mxCell id="m3TGQQSKfFaG7IauIRE3-42" value="" style="shape=waypoint;sketch=0;fillStyle=solid;size=6;pointerEvents=1;points=[];fillColor=none;resizable=0;rotatable=0;perimeter=centerPerimeter;snapToPoint=1;" vertex="1" parent="1">
          <mxGeometry x="200" y="460" width="20" height="20" as="geometry" />
        </mxCell>
        <mxCell id="m3TGQQSKfFaG7IauIRE3-43" value="\(1\)" style="text;html=1;strokeColor=none;fillColor=none;align=center;verticalAlign=middle;whiteSpace=wrap;rounded=0;" vertex="1" parent="1">
          <mxGeometry x="210" y="360" width="20" height="20" as="geometry" />
        </mxCell>
        <mxCell id="m3TGQQSKfFaG7IauIRE3-44" value="\(2\)" style="text;html=1;strokeColor=none;fillColor=none;align=center;verticalAlign=middle;whiteSpace=wrap;rounded=0;" vertex="1" parent="1">
          <mxGeometry x="210" y="390" width="20" height="20" as="geometry" />
        </mxCell>
        <mxCell id="m3TGQQSKfFaG7IauIRE3-45" value="\(3\)" style="text;html=1;strokeColor=none;fillColor=none;align=center;verticalAlign=middle;whiteSpace=wrap;rounded=0;" vertex="1" parent="1">
          <mxGeometry x="210" y="420" width="20" height="20" as="geometry" />
        </mxCell>
        <mxCell id="m3TGQQSKfFaG7IauIRE3-46" value="\(4\)" style="text;html=1;strokeColor=none;fillColor=none;align=center;verticalAlign=middle;whiteSpace=wrap;rounded=0;" vertex="1" parent="1">
          <mxGeometry x="210" y="470" width="20" height="20" as="geometry" />
        </mxCell>
        <mxCell id="m3TGQQSKfFaG7IauIRE3-47" value="" style="shape=waypoint;sketch=0;fillStyle=solid;size=6;pointerEvents=1;points=[];fillColor=none;resizable=0;rotatable=0;perimeter=centerPerimeter;snapToPoint=1;" vertex="1" parent="1">
          <mxGeometry x="270" y="390" width="20" height="20" as="geometry" />
        </mxCell>
        <mxCell id="m3TGQQSKfFaG7IauIRE3-48" value="" style="shape=waypoint;sketch=0;fillStyle=solid;size=6;pointerEvents=1;points=[];fillColor=none;resizable=0;rotatable=0;perimeter=centerPerimeter;snapToPoint=1;" vertex="1" parent="1">
          <mxGeometry x="270" y="420" width="20" height="20" as="geometry" />
        </mxCell>
        <mxCell id="m3TGQQSKfFaG7IauIRE3-49" value="" style="shape=waypoint;sketch=0;fillStyle=solid;size=6;pointerEvents=1;points=[];fillColor=none;resizable=0;rotatable=0;perimeter=centerPerimeter;snapToPoint=1;" vertex="1" parent="1">
          <mxGeometry x="270" y="450" width="20" height="20" as="geometry" />
        </mxCell>
        <mxCell id="m3TGQQSKfFaG7IauIRE3-50" value="\(c\)" style="text;html=1;strokeColor=none;fillColor=none;align=center;verticalAlign=middle;whiteSpace=wrap;rounded=0;" vertex="1" parent="1">
          <mxGeometry x="280" y="450" width="30" height="20" as="geometry" />
        </mxCell>
        <mxCell id="m3TGQQSKfFaG7IauIRE3-51" value="\(b\)" style="text;html=1;strokeColor=none;fillColor=none;align=center;verticalAlign=middle;whiteSpace=wrap;rounded=0;" vertex="1" parent="1">
          <mxGeometry x="280" y="420" width="30" height="20" as="geometry" />
        </mxCell>
        <mxCell id="m3TGQQSKfFaG7IauIRE3-52" value="\(a\)" style="text;html=1;strokeColor=none;fillColor=none;align=center;verticalAlign=middle;whiteSpace=wrap;rounded=0;" vertex="1" parent="1">
          <mxGeometry x="280" y="390" width="30" height="20" as="geometry" />
        </mxCell>
        <mxCell id="m3TGQQSKfFaG7IauIRE3-53" style="rounded=0;orthogonalLoop=1;jettySize=auto;html=1;jumpStyle=gap;jumpSize=8;endArrow=none;endFill=0;exitX=0.644;exitY=0.517;exitDx=0;exitDy=0;exitPerimeter=0;entryX=0.1;entryY=0.55;entryDx=0;entryDy=0;entryPerimeter=0;" edge="1" parent="1" source="m3TGQQSKfFaG7IauIRE3-31" target="m3TGQQSKfFaG7IauIRE3-41">
          <mxGeometry relative="1" as="geometry">
            <mxPoint x="150" y="400" as="sourcePoint" />
            <mxPoint x="210" y="440" as="targetPoint" />
          </mxGeometry>
        </mxCell>
        <mxCell id="m3TGQQSKfFaG7IauIRE3-54" style="rounded=0;orthogonalLoop=1;jettySize=auto;html=1;jumpStyle=gap;jumpSize=8;endArrow=none;endFill=0;entryX=0.5;entryY=0.772;entryDx=0;entryDy=0;entryPerimeter=0;exitX=0.678;exitY=0.483;exitDx=0;exitDy=0;exitPerimeter=0;" edge="1" parent="1" source="m3TGQQSKfFaG7IauIRE3-32" target="m3TGQQSKfFaG7IauIRE3-42">
          <mxGeometry relative="1" as="geometry">
            <mxPoint x="150" y="430" as="sourcePoint" />
            <mxPoint x="220" y="450" as="targetPoint" />
          </mxGeometry>
        </mxCell>
        <mxCell id="m3TGQQSKfFaG7IauIRE3-55" style="rounded=0;orthogonalLoop=1;jettySize=auto;html=1;jumpStyle=gap;jumpSize=8;endArrow=none;endFill=0;exitX=0.611;exitY=0.617;exitDx=0;exitDy=0;exitPerimeter=0;entryX=0.456;entryY=0.628;entryDx=0;entryDy=0;entryPerimeter=0;" edge="1" parent="1" source="m3TGQQSKfFaG7IauIRE3-33" target="m3TGQQSKfFaG7IauIRE3-39">
          <mxGeometry relative="1" as="geometry">
            <mxPoint x="160" y="440" as="sourcePoint" />
            <mxPoint x="190" y="450" as="targetPoint" />
          </mxGeometry>
        </mxCell>
        <mxCell id="m3TGQQSKfFaG7IauIRE3-56" style="rounded=0;orthogonalLoop=1;jettySize=auto;html=1;jumpStyle=gap;jumpSize=8;endArrow=none;endFill=0;exitX=0.373;exitY=0.597;exitDx=0;exitDy=0;exitPerimeter=0;entryX=0.207;entryY=0.923;entryDx=0;entryDy=0;entryPerimeter=0;" edge="1" parent="1" source="m3TGQQSKfFaG7IauIRE3-47" target="m3TGQQSKfFaG7IauIRE3-40">
          <mxGeometry relative="1" as="geometry">
            <mxPoint x="160" y="470" as="sourcePoint" />
            <mxPoint x="210" y="410" as="targetPoint" />
          </mxGeometry>
        </mxCell>
        <mxCell id="m3TGQQSKfFaG7IauIRE3-57" style="rounded=0;orthogonalLoop=1;jettySize=auto;html=1;jumpStyle=gap;jumpSize=8;endArrow=none;endFill=0;exitX=0.44;exitY=0.377;exitDx=0;exitDy=0;exitPerimeter=0;entryX=0.513;entryY=0.703;entryDx=0;entryDy=0;entryPerimeter=0;" edge="1" parent="1" source="m3TGQQSKfFaG7IauIRE3-48" target="m3TGQQSKfFaG7IauIRE3-39">
          <mxGeometry relative="1" as="geometry">
            <mxPoint x="290" y="410" as="sourcePoint" />
            <mxPoint x="220" y="420" as="targetPoint" />
          </mxGeometry>
        </mxCell>
        <mxCell id="m3TGQQSKfFaG7IauIRE3-58" style="rounded=0;orthogonalLoop=1;jettySize=auto;html=1;jumpStyle=gap;jumpSize=8;endArrow=none;endFill=0;exitX=0.347;exitY=0.557;exitDx=0;exitDy=0;exitPerimeter=0;entryX=0.38;entryY=0.037;entryDx=0;entryDy=0;entryPerimeter=0;" edge="1" parent="1" source="m3TGQQSKfFaG7IauIRE3-49" target="m3TGQQSKfFaG7IauIRE3-41">
          <mxGeometry relative="1" as="geometry">
            <mxPoint x="290" y="440" as="sourcePoint" />
            <mxPoint x="220" y="390" as="targetPoint" />
          </mxGeometry>
        </mxCell>
        <mxCell id="m3TGQQSKfFaG7IauIRE3-59" style="rounded=0;orthogonalLoop=1;jettySize=auto;html=1;jumpStyle=gap;jumpSize=8;endArrow=none;endFill=0;exitX=0.293;exitY=0.917;exitDx=0;exitDy=0;exitPerimeter=0;entryX=0.42;entryY=0.35;entryDx=0;entryDy=0;entryPerimeter=0;" edge="1" parent="1" source="m3TGQQSKfFaG7IauIRE3-47" target="m3TGQQSKfFaG7IauIRE3-42">
          <mxGeometry relative="1" as="geometry">
            <mxPoint x="290" y="470" as="sourcePoint" />
            <mxPoint x="220" y="450" as="targetPoint" />
          </mxGeometry>
        </mxCell>
        <mxCell id="m3TGQQSKfFaG7IauIRE3-60" value="" style="shape=waypoint;sketch=0;fillStyle=solid;size=6;pointerEvents=1;points=[];fillColor=none;resizable=0;rotatable=0;perimeter=centerPerimeter;snapToPoint=1;" vertex="1" parent="1">
          <mxGeometry x="140" y="260" width="20" height="20" as="geometry" />
        </mxCell>
        <mxCell id="m3TGQQSKfFaG7IauIRE3-61" value="" style="shape=waypoint;sketch=0;fillStyle=solid;size=6;pointerEvents=1;points=[];fillColor=none;resizable=0;rotatable=0;perimeter=centerPerimeter;snapToPoint=1;" vertex="1" parent="1">
          <mxGeometry x="140" y="290" width="20" height="20" as="geometry" />
        </mxCell>
        <mxCell id="m3TGQQSKfFaG7IauIRE3-62" value="" style="shape=waypoint;sketch=0;fillStyle=solid;size=6;pointerEvents=1;points=[];fillColor=none;resizable=0;rotatable=0;perimeter=centerPerimeter;snapToPoint=1;" vertex="1" parent="1">
          <mxGeometry x="140" y="320" width="20" height="20" as="geometry" />
        </mxCell>
        <mxCell id="m3TGQQSKfFaG7IauIRE3-63" value="\(a\)" style="text;html=1;strokeColor=none;fillColor=none;align=center;verticalAlign=middle;whiteSpace=wrap;rounded=0;" vertex="1" parent="1">
          <mxGeometry x="120" y="260" width="30" height="20" as="geometry" />
        </mxCell>
        <mxCell id="m3TGQQSKfFaG7IauIRE3-64" value="\(b\)" style="text;html=1;strokeColor=none;fillColor=none;align=center;verticalAlign=middle;whiteSpace=wrap;rounded=0;" vertex="1" parent="1">
          <mxGeometry x="120" y="290" width="30" height="20" as="geometry" />
        </mxCell>
        <mxCell id="m3TGQQSKfFaG7IauIRE3-65" value="\(c\)" style="text;html=1;strokeColor=none;fillColor=none;align=center;verticalAlign=middle;whiteSpace=wrap;rounded=0;" vertex="1" parent="1">
          <mxGeometry x="120" y="320" width="30" height="20" as="geometry" />
        </mxCell>
        <mxCell id="m3TGQQSKfFaG7IauIRE3-66" value="" style="shape=waypoint;sketch=0;fillStyle=solid;size=6;pointerEvents=1;points=[];fillColor=none;resizable=0;rotatable=0;perimeter=centerPerimeter;snapToPoint=1;" vertex="1" parent="1">
          <mxGeometry x="200" y="240" width="20" height="20" as="geometry" />
        </mxCell>
        <mxCell id="m3TGQQSKfFaG7IauIRE3-67" value="" style="shape=waypoint;sketch=0;fillStyle=solid;size=6;pointerEvents=1;points=[];fillColor=none;resizable=0;rotatable=0;perimeter=centerPerimeter;snapToPoint=1;" vertex="1" parent="1">
          <mxGeometry x="200" y="270" width="20" height="20" as="geometry" />
        </mxCell>
        <mxCell id="m3TGQQSKfFaG7IauIRE3-68" value="" style="shape=waypoint;sketch=0;fillStyle=solid;size=6;pointerEvents=1;points=[];fillColor=none;resizable=0;rotatable=0;perimeter=centerPerimeter;snapToPoint=1;" vertex="1" parent="1">
          <mxGeometry x="200" y="300" width="20" height="20" as="geometry" />
        </mxCell>
        <mxCell id="m3TGQQSKfFaG7IauIRE3-69" value="" style="shape=waypoint;sketch=0;fillStyle=solid;size=6;pointerEvents=1;points=[];fillColor=none;resizable=0;rotatable=0;perimeter=centerPerimeter;snapToPoint=1;" vertex="1" parent="1">
          <mxGeometry x="200" y="330" width="20" height="20" as="geometry" />
        </mxCell>
        <mxCell id="m3TGQQSKfFaG7IauIRE3-70" value="\(1\)" style="text;html=1;strokeColor=none;fillColor=none;align=center;verticalAlign=middle;whiteSpace=wrap;rounded=0;" vertex="1" parent="1">
          <mxGeometry x="210" y="230" width="20" height="20" as="geometry" />
        </mxCell>
        <mxCell id="m3TGQQSKfFaG7IauIRE3-71" value="\(2\)" style="text;html=1;strokeColor=none;fillColor=none;align=center;verticalAlign=middle;whiteSpace=wrap;rounded=0;" vertex="1" parent="1">
          <mxGeometry x="210" y="260" width="20" height="20" as="geometry" />
        </mxCell>
        <mxCell id="m3TGQQSKfFaG7IauIRE3-72" value="\(3\)" style="text;html=1;strokeColor=none;fillColor=none;align=center;verticalAlign=middle;whiteSpace=wrap;rounded=0;" vertex="1" parent="1">
          <mxGeometry x="210" y="290" width="20" height="20" as="geometry" />
        </mxCell>
        <mxCell id="m3TGQQSKfFaG7IauIRE3-73" value="\(4\)" style="text;html=1;strokeColor=none;fillColor=none;align=center;verticalAlign=middle;whiteSpace=wrap;rounded=0;" vertex="1" parent="1">
          <mxGeometry x="210" y="340" width="20" height="20" as="geometry" />
        </mxCell>
        <mxCell id="m3TGQQSKfFaG7IauIRE3-74" value="" style="shape=waypoint;sketch=0;fillStyle=solid;size=6;pointerEvents=1;points=[];fillColor=none;resizable=0;rotatable=0;perimeter=centerPerimeter;snapToPoint=1;" vertex="1" parent="1">
          <mxGeometry x="270" y="260" width="20" height="20" as="geometry" />
        </mxCell>
        <mxCell id="m3TGQQSKfFaG7IauIRE3-75" value="" style="shape=waypoint;sketch=0;fillStyle=solid;size=6;pointerEvents=1;points=[];fillColor=none;resizable=0;rotatable=0;perimeter=centerPerimeter;snapToPoint=1;" vertex="1" parent="1">
          <mxGeometry x="270" y="290" width="20" height="20" as="geometry" />
        </mxCell>
        <mxCell id="m3TGQQSKfFaG7IauIRE3-76" value="" style="shape=waypoint;sketch=0;fillStyle=solid;size=6;pointerEvents=1;points=[];fillColor=none;resizable=0;rotatable=0;perimeter=centerPerimeter;snapToPoint=1;" vertex="1" parent="1">
          <mxGeometry x="270" y="320" width="20" height="20" as="geometry" />
        </mxCell>
        <mxCell id="m3TGQQSKfFaG7IauIRE3-77" value="\(c\)" style="text;html=1;strokeColor=none;fillColor=none;align=center;verticalAlign=middle;whiteSpace=wrap;rounded=0;" vertex="1" parent="1">
          <mxGeometry x="280" y="320" width="30" height="20" as="geometry" />
        </mxCell>
        <mxCell id="m3TGQQSKfFaG7IauIRE3-78" value="\(b\)" style="text;html=1;strokeColor=none;fillColor=none;align=center;verticalAlign=middle;whiteSpace=wrap;rounded=0;" vertex="1" parent="1">
          <mxGeometry x="280" y="290" width="30" height="20" as="geometry" />
        </mxCell>
        <mxCell id="m3TGQQSKfFaG7IauIRE3-79" value="\(a\)" style="text;html=1;strokeColor=none;fillColor=none;align=center;verticalAlign=middle;whiteSpace=wrap;rounded=0;" vertex="1" parent="1">
          <mxGeometry x="280" y="260" width="30" height="20" as="geometry" />
        </mxCell>
        <mxCell id="m3TGQQSKfFaG7IauIRE3-80" style="rounded=0;orthogonalLoop=1;jettySize=auto;html=1;jumpStyle=gap;jumpSize=8;endArrow=none;endFill=0;exitX=0.644;exitY=0.517;exitDx=0;exitDy=0;exitPerimeter=0;entryX=0.1;entryY=0.55;entryDx=0;entryDy=0;entryPerimeter=0;" edge="1" source="m3TGQQSKfFaG7IauIRE3-60" target="m3TGQQSKfFaG7IauIRE3-68" parent="1">
          <mxGeometry relative="1" as="geometry">
            <mxPoint x="150" y="270" as="sourcePoint" />
            <mxPoint x="210" y="310" as="targetPoint" />
          </mxGeometry>
        </mxCell>
        <mxCell id="m3TGQQSKfFaG7IauIRE3-81" style="rounded=0;orthogonalLoop=1;jettySize=auto;html=1;jumpStyle=gap;jumpSize=8;endArrow=none;endFill=0;entryX=0.5;entryY=0.772;entryDx=0;entryDy=0;entryPerimeter=0;exitX=0.678;exitY=0.483;exitDx=0;exitDy=0;exitPerimeter=0;" edge="1" source="m3TGQQSKfFaG7IauIRE3-61" target="m3TGQQSKfFaG7IauIRE3-69" parent="1">
          <mxGeometry relative="1" as="geometry">
            <mxPoint x="150" y="300" as="sourcePoint" />
            <mxPoint x="220" y="320" as="targetPoint" />
          </mxGeometry>
        </mxCell>
        <mxCell id="m3TGQQSKfFaG7IauIRE3-82" style="rounded=0;orthogonalLoop=1;jettySize=auto;html=1;jumpStyle=gap;jumpSize=8;endArrow=none;endFill=0;exitX=0.611;exitY=0.617;exitDx=0;exitDy=0;exitPerimeter=0;entryX=0.281;entryY=0.965;entryDx=0;entryDy=0;entryPerimeter=0;" edge="1" source="m3TGQQSKfFaG7IauIRE3-62" target="m3TGQQSKfFaG7IauIRE3-67" parent="1">
          <mxGeometry relative="1" as="geometry">
            <mxPoint x="160" y="310" as="sourcePoint" />
            <mxPoint x="190" y="320" as="targetPoint" />
          </mxGeometry>
        </mxCell>
        <mxCell id="m3TGQQSKfFaG7IauIRE3-83" style="rounded=0;orthogonalLoop=1;jettySize=auto;html=1;jumpStyle=gap;jumpSize=8;endArrow=none;endFill=0;exitX=0.373;exitY=0.597;exitDx=0;exitDy=0;exitPerimeter=0;entryX=0.207;entryY=0.923;entryDx=0;entryDy=0;entryPerimeter=0;" edge="1" source="m3TGQQSKfFaG7IauIRE3-74" target="m3TGQQSKfFaG7IauIRE3-67" parent="1">
          <mxGeometry relative="1" as="geometry">
            <mxPoint x="160" y="340" as="sourcePoint" />
            <mxPoint x="210" y="280" as="targetPoint" />
          </mxGeometry>
        </mxCell>
        <mxCell id="m3TGQQSKfFaG7IauIRE3-84" style="rounded=0;orthogonalLoop=1;jettySize=auto;html=1;jumpStyle=gap;jumpSize=8;endArrow=none;endFill=0;exitX=0.44;exitY=0.377;exitDx=0;exitDy=0;exitPerimeter=0;entryX=0.513;entryY=0.703;entryDx=0;entryDy=0;entryPerimeter=0;" edge="1" source="m3TGQQSKfFaG7IauIRE3-75" target="m3TGQQSKfFaG7IauIRE3-66" parent="1">
          <mxGeometry relative="1" as="geometry">
            <mxPoint x="290" y="280" as="sourcePoint" />
            <mxPoint x="220" y="290" as="targetPoint" />
          </mxGeometry>
        </mxCell>
        <mxCell id="m3TGQQSKfFaG7IauIRE3-85" style="rounded=0;orthogonalLoop=1;jettySize=auto;html=1;jumpStyle=gap;jumpSize=8;endArrow=none;endFill=0;exitX=0.347;exitY=0.557;exitDx=0;exitDy=0;exitPerimeter=0;entryX=0.38;entryY=0.037;entryDx=0;entryDy=0;entryPerimeter=0;" edge="1" source="m3TGQQSKfFaG7IauIRE3-76" target="m3TGQQSKfFaG7IauIRE3-68" parent="1">
          <mxGeometry relative="1" as="geometry">
            <mxPoint x="290" y="310" as="sourcePoint" />
            <mxPoint x="220" y="260" as="targetPoint" />
          </mxGeometry>
        </mxCell>
        <mxCell id="m3TGQQSKfFaG7IauIRE3-86" style="rounded=0;orthogonalLoop=1;jettySize=auto;html=1;jumpStyle=gap;jumpSize=8;endArrow=none;endFill=0;exitX=0.293;exitY=0.917;exitDx=0;exitDy=0;exitPerimeter=0;entryX=0.42;entryY=0.35;entryDx=0;entryDy=0;entryPerimeter=0;" edge="1" source="m3TGQQSKfFaG7IauIRE3-74" target="m3TGQQSKfFaG7IauIRE3-69" parent="1">
          <mxGeometry relative="1" as="geometry">
            <mxPoint x="290" y="340" as="sourcePoint" />
            <mxPoint x="220" y="320" as="targetPoint" />
          </mxGeometry>
        </mxCell>
        <mxCell id="m3TGQQSKfFaG7IauIRE3-87" value="" style="shape=waypoint;sketch=0;fillStyle=solid;size=6;pointerEvents=1;points=[];fillColor=none;resizable=0;rotatable=0;perimeter=centerPerimeter;snapToPoint=1;" vertex="1" parent="1">
          <mxGeometry x="140" y="530" width="20" height="20" as="geometry" />
        </mxCell>
        <mxCell id="m3TGQQSKfFaG7IauIRE3-88" value="" style="shape=waypoint;sketch=0;fillStyle=solid;size=6;pointerEvents=1;points=[];fillColor=none;resizable=0;rotatable=0;perimeter=centerPerimeter;snapToPoint=1;" vertex="1" parent="1">
          <mxGeometry x="140" y="560" width="20" height="20" as="geometry" />
        </mxCell>
        <mxCell id="m3TGQQSKfFaG7IauIRE3-89" value="" style="shape=waypoint;sketch=0;fillStyle=solid;size=6;pointerEvents=1;points=[];fillColor=none;resizable=0;rotatable=0;perimeter=centerPerimeter;snapToPoint=1;" vertex="1" parent="1">
          <mxGeometry x="140" y="590" width="20" height="20" as="geometry" />
        </mxCell>
        <mxCell id="m3TGQQSKfFaG7IauIRE3-90" value="\(a\)" style="text;html=1;strokeColor=none;fillColor=none;align=center;verticalAlign=middle;whiteSpace=wrap;rounded=0;" vertex="1" parent="1">
          <mxGeometry x="120" y="530" width="30" height="20" as="geometry" />
        </mxCell>
        <mxCell id="m3TGQQSKfFaG7IauIRE3-91" value="\(b\)" style="text;html=1;strokeColor=none;fillColor=none;align=center;verticalAlign=middle;whiteSpace=wrap;rounded=0;" vertex="1" parent="1">
          <mxGeometry x="120" y="560" width="30" height="20" as="geometry" />
        </mxCell>
        <mxCell id="m3TGQQSKfFaG7IauIRE3-92" value="\(c\)" style="text;html=1;strokeColor=none;fillColor=none;align=center;verticalAlign=middle;whiteSpace=wrap;rounded=0;" vertex="1" parent="1">
          <mxGeometry x="120" y="590" width="30" height="20" as="geometry" />
        </mxCell>
        <mxCell id="m3TGQQSKfFaG7IauIRE3-93" value="" style="shape=waypoint;sketch=0;fillStyle=solid;size=6;pointerEvents=1;points=[];fillColor=none;resizable=0;rotatable=0;perimeter=centerPerimeter;snapToPoint=1;" vertex="1" parent="1">
          <mxGeometry x="200" y="510" width="20" height="20" as="geometry" />
        </mxCell>
        <mxCell id="m3TGQQSKfFaG7IauIRE3-94" value="" style="shape=waypoint;sketch=0;fillStyle=solid;size=6;pointerEvents=1;points=[];fillColor=none;resizable=0;rotatable=0;perimeter=centerPerimeter;snapToPoint=1;" vertex="1" parent="1">
          <mxGeometry x="200" y="540" width="20" height="20" as="geometry" />
        </mxCell>
        <mxCell id="m3TGQQSKfFaG7IauIRE3-95" value="" style="shape=waypoint;sketch=0;fillStyle=solid;size=6;pointerEvents=1;points=[];fillColor=none;resizable=0;rotatable=0;perimeter=centerPerimeter;snapToPoint=1;" vertex="1" parent="1">
          <mxGeometry x="200" y="570" width="20" height="20" as="geometry" />
        </mxCell>
        <mxCell id="m3TGQQSKfFaG7IauIRE3-96" value="" style="shape=waypoint;sketch=0;fillStyle=solid;size=6;pointerEvents=1;points=[];fillColor=none;resizable=0;rotatable=0;perimeter=centerPerimeter;snapToPoint=1;" vertex="1" parent="1">
          <mxGeometry x="200" y="600" width="20" height="20" as="geometry" />
        </mxCell>
        <mxCell id="m3TGQQSKfFaG7IauIRE3-97" value="\(1\)" style="text;html=1;strokeColor=none;fillColor=none;align=center;verticalAlign=middle;whiteSpace=wrap;rounded=0;" vertex="1" parent="1">
          <mxGeometry x="210" y="500" width="20" height="20" as="geometry" />
        </mxCell>
        <mxCell id="m3TGQQSKfFaG7IauIRE3-98" value="\(2\)" style="text;html=1;strokeColor=none;fillColor=none;align=center;verticalAlign=middle;whiteSpace=wrap;rounded=0;" vertex="1" parent="1">
          <mxGeometry x="210" y="530" width="20" height="20" as="geometry" />
        </mxCell>
        <mxCell id="m3TGQQSKfFaG7IauIRE3-99" value="\(3\)" style="text;html=1;strokeColor=none;fillColor=none;align=center;verticalAlign=middle;whiteSpace=wrap;rounded=0;" vertex="1" parent="1">
          <mxGeometry x="210" y="560" width="20" height="20" as="geometry" />
        </mxCell>
        <mxCell id="m3TGQQSKfFaG7IauIRE3-100" value="\(4\)" style="text;html=1;strokeColor=none;fillColor=none;align=center;verticalAlign=middle;whiteSpace=wrap;rounded=0;" vertex="1" parent="1">
          <mxGeometry x="210" y="610" width="20" height="20" as="geometry" />
        </mxCell>
        <mxCell id="m3TGQQSKfFaG7IauIRE3-101" value="" style="shape=waypoint;sketch=0;fillStyle=solid;size=6;pointerEvents=1;points=[];fillColor=none;resizable=0;rotatable=0;perimeter=centerPerimeter;snapToPoint=1;" vertex="1" parent="1">
          <mxGeometry x="270" y="530" width="20" height="20" as="geometry" />
        </mxCell>
        <mxCell id="m3TGQQSKfFaG7IauIRE3-102" value="" style="shape=waypoint;sketch=0;fillStyle=solid;size=6;pointerEvents=1;points=[];fillColor=none;resizable=0;rotatable=0;perimeter=centerPerimeter;snapToPoint=1;" vertex="1" parent="1">
          <mxGeometry x="270" y="560" width="20" height="20" as="geometry" />
        </mxCell>
        <mxCell id="m3TGQQSKfFaG7IauIRE3-103" value="" style="shape=waypoint;sketch=0;fillStyle=solid;size=6;pointerEvents=1;points=[];fillColor=none;resizable=0;rotatable=0;perimeter=centerPerimeter;snapToPoint=1;" vertex="1" parent="1">
          <mxGeometry x="270" y="590" width="20" height="20" as="geometry" />
        </mxCell>
        <mxCell id="m3TGQQSKfFaG7IauIRE3-104" value="\(c\)" style="text;html=1;strokeColor=none;fillColor=none;align=center;verticalAlign=middle;whiteSpace=wrap;rounded=0;" vertex="1" parent="1">
          <mxGeometry x="280" y="590" width="30" height="20" as="geometry" />
        </mxCell>
        <mxCell id="m3TGQQSKfFaG7IauIRE3-105" value="\(b\)" style="text;html=1;strokeColor=none;fillColor=none;align=center;verticalAlign=middle;whiteSpace=wrap;rounded=0;" vertex="1" parent="1">
          <mxGeometry x="280" y="560" width="30" height="20" as="geometry" />
        </mxCell>
        <mxCell id="m3TGQQSKfFaG7IauIRE3-106" value="\(a\)" style="text;html=1;strokeColor=none;fillColor=none;align=center;verticalAlign=middle;whiteSpace=wrap;rounded=0;" vertex="1" parent="1">
          <mxGeometry x="280" y="530" width="30" height="20" as="geometry" />
        </mxCell>
        <mxCell id="m3TGQQSKfFaG7IauIRE3-107" style="rounded=0;orthogonalLoop=1;jettySize=auto;html=1;jumpStyle=gap;jumpSize=8;endArrow=none;endFill=0;exitX=0.644;exitY=0.517;exitDx=0;exitDy=0;exitPerimeter=0;entryX=0.1;entryY=0.55;entryDx=0;entryDy=0;entryPerimeter=0;" edge="1" source="m3TGQQSKfFaG7IauIRE3-87" target="m3TGQQSKfFaG7IauIRE3-95" parent="1">
          <mxGeometry relative="1" as="geometry">
            <mxPoint x="150" y="540" as="sourcePoint" />
            <mxPoint x="210" y="580" as="targetPoint" />
          </mxGeometry>
        </mxCell>
        <mxCell id="m3TGQQSKfFaG7IauIRE3-108" style="rounded=0;orthogonalLoop=1;jettySize=auto;html=1;jumpStyle=gap;jumpSize=8;endArrow=none;endFill=0;entryX=0.5;entryY=0.772;entryDx=0;entryDy=0;entryPerimeter=0;exitX=0.678;exitY=0.483;exitDx=0;exitDy=0;exitPerimeter=0;" edge="1" source="m3TGQQSKfFaG7IauIRE3-88" target="m3TGQQSKfFaG7IauIRE3-96" parent="1">
          <mxGeometry relative="1" as="geometry">
            <mxPoint x="150" y="570" as="sourcePoint" />
            <mxPoint x="220" y="590" as="targetPoint" />
          </mxGeometry>
        </mxCell>
        <mxCell id="m3TGQQSKfFaG7IauIRE3-109" style="rounded=0;orthogonalLoop=1;jettySize=auto;html=1;jumpStyle=gap;jumpSize=8;endArrow=none;endFill=0;exitX=0.611;exitY=0.617;exitDx=0;exitDy=0;exitPerimeter=0;entryX=0.281;entryY=0.965;entryDx=0;entryDy=0;entryPerimeter=0;" edge="1" source="m3TGQQSKfFaG7IauIRE3-89" target="m3TGQQSKfFaG7IauIRE3-94" parent="1">
          <mxGeometry relative="1" as="geometry">
            <mxPoint x="160" y="580" as="sourcePoint" />
            <mxPoint x="190" y="590" as="targetPoint" />
          </mxGeometry>
        </mxCell>
        <mxCell id="m3TGQQSKfFaG7IauIRE3-110" style="rounded=0;orthogonalLoop=1;jettySize=auto;html=1;jumpStyle=gap;jumpSize=8;endArrow=none;endFill=0;exitX=0.373;exitY=0.597;exitDx=0;exitDy=0;exitPerimeter=0;entryX=0.207;entryY=0.923;entryDx=0;entryDy=0;entryPerimeter=0;" edge="1" source="m3TGQQSKfFaG7IauIRE3-101" target="m3TGQQSKfFaG7IauIRE3-94" parent="1">
          <mxGeometry relative="1" as="geometry">
            <mxPoint x="160" y="610" as="sourcePoint" />
            <mxPoint x="210" y="550" as="targetPoint" />
          </mxGeometry>
        </mxCell>
        <mxCell id="m3TGQQSKfFaG7IauIRE3-111" style="rounded=0;orthogonalLoop=1;jettySize=auto;html=1;jumpStyle=gap;jumpSize=8;endArrow=none;endFill=0;exitX=0.44;exitY=0.377;exitDx=0;exitDy=0;exitPerimeter=0;entryX=0.492;entryY=0.908;entryDx=0;entryDy=0;entryPerimeter=0;" edge="1" source="m3TGQQSKfFaG7IauIRE3-102" target="m3TGQQSKfFaG7IauIRE3-94" parent="1">
          <mxGeometry relative="1" as="geometry">
            <mxPoint x="290" y="550" as="sourcePoint" />
            <mxPoint x="220" y="560" as="targetPoint" />
          </mxGeometry>
        </mxCell>
        <mxCell id="m3TGQQSKfFaG7IauIRE3-112" style="rounded=0;orthogonalLoop=1;jettySize=auto;html=1;jumpStyle=gap;jumpSize=8;endArrow=none;endFill=0;exitX=0.347;exitY=0.557;exitDx=0;exitDy=0;exitPerimeter=0;entryX=0.38;entryY=0.037;entryDx=0;entryDy=0;entryPerimeter=0;" edge="1" source="m3TGQQSKfFaG7IauIRE3-103" target="m3TGQQSKfFaG7IauIRE3-95" parent="1">
          <mxGeometry relative="1" as="geometry">
            <mxPoint x="290" y="580" as="sourcePoint" />
            <mxPoint x="220" y="530" as="targetPoint" />
          </mxGeometry>
        </mxCell>
        <mxCell id="m3TGQQSKfFaG7IauIRE3-113" style="rounded=0;orthogonalLoop=1;jettySize=auto;html=1;jumpStyle=gap;jumpSize=8;endArrow=none;endFill=0;exitX=0.293;exitY=0.917;exitDx=0;exitDy=0;exitPerimeter=0;entryX=0.42;entryY=0.35;entryDx=0;entryDy=0;entryPerimeter=0;" edge="1" source="m3TGQQSKfFaG7IauIRE3-101" target="m3TGQQSKfFaG7IauIRE3-96" parent="1">
          <mxGeometry relative="1" as="geometry">
            <mxPoint x="290" y="610" as="sourcePoint" />
            <mxPoint x="220" y="590" as="targetPoint" />
          </mxGeometry>
        </mxCell>
        <mxCell id="m3TGQQSKfFaG7IauIRE3-147" value="" style="shape=waypoint;sketch=0;fillStyle=solid;size=6;pointerEvents=1;points=[];fillColor=none;resizable=0;rotatable=0;perimeter=centerPerimeter;snapToPoint=1;" vertex="1" parent="1">
          <mxGeometry x="140" y="650" width="20" height="20" as="geometry" />
        </mxCell>
        <mxCell id="m3TGQQSKfFaG7IauIRE3-148" value="" style="shape=waypoint;sketch=0;fillStyle=solid;size=6;pointerEvents=1;points=[];fillColor=none;resizable=0;rotatable=0;perimeter=centerPerimeter;snapToPoint=1;" vertex="1" parent="1">
          <mxGeometry x="140" y="680" width="20" height="20" as="geometry" />
        </mxCell>
        <mxCell id="m3TGQQSKfFaG7IauIRE3-149" value="" style="shape=waypoint;sketch=0;fillStyle=solid;size=6;pointerEvents=1;points=[];fillColor=none;resizable=0;rotatable=0;perimeter=centerPerimeter;snapToPoint=1;" vertex="1" parent="1">
          <mxGeometry x="140" y="710" width="20" height="20" as="geometry" />
        </mxCell>
        <mxCell id="m3TGQQSKfFaG7IauIRE3-150" value="" style="shape=waypoint;sketch=0;fillStyle=solid;size=6;pointerEvents=1;points=[];fillColor=none;resizable=0;rotatable=0;perimeter=centerPerimeter;snapToPoint=1;" vertex="1" parent="1">
          <mxGeometry x="140" y="740" width="20" height="20" as="geometry" />
        </mxCell>
        <mxCell id="m3TGQQSKfFaG7IauIRE3-151" value="\(1\)" style="text;html=1;strokeColor=none;fillColor=none;align=center;verticalAlign=middle;whiteSpace=wrap;rounded=0;" vertex="1" parent="1">
          <mxGeometry x="120" y="650" width="30" height="20" as="geometry" />
        </mxCell>
        <mxCell id="m3TGQQSKfFaG7IauIRE3-152" value="\(2\)" style="text;html=1;strokeColor=none;fillColor=none;align=center;verticalAlign=middle;whiteSpace=wrap;rounded=0;" vertex="1" parent="1">
          <mxGeometry x="120" y="680" width="30" height="20" as="geometry" />
        </mxCell>
        <mxCell id="m3TGQQSKfFaG7IauIRE3-153" value="\(3\)" style="text;html=1;strokeColor=none;fillColor=none;align=center;verticalAlign=middle;whiteSpace=wrap;rounded=0;" vertex="1" parent="1">
          <mxGeometry x="120" y="710" width="30" height="20" as="geometry" />
        </mxCell>
        <mxCell id="m3TGQQSKfFaG7IauIRE3-154" value="\(4\)" style="text;html=1;strokeColor=none;fillColor=none;align=center;verticalAlign=middle;whiteSpace=wrap;rounded=0;" vertex="1" parent="1">
          <mxGeometry x="120" y="740" width="30" height="20" as="geometry" />
        </mxCell>
        <mxCell id="m3TGQQSKfFaG7IauIRE3-155" value="" style="shape=waypoint;sketch=0;fillStyle=solid;size=6;pointerEvents=1;points=[];fillColor=none;resizable=0;rotatable=0;perimeter=centerPerimeter;snapToPoint=1;" vertex="1" parent="1">
          <mxGeometry x="210" y="670" width="20" height="20" as="geometry" />
        </mxCell>
        <mxCell id="m3TGQQSKfFaG7IauIRE3-156" value="" style="shape=waypoint;sketch=0;fillStyle=solid;size=6;pointerEvents=1;points=[];fillColor=none;resizable=0;rotatable=0;perimeter=centerPerimeter;snapToPoint=1;" vertex="1" parent="1">
          <mxGeometry x="210" y="700" width="20" height="20" as="geometry" />
        </mxCell>
        <mxCell id="m3TGQQSKfFaG7IauIRE3-157" value="" style="shape=waypoint;sketch=0;fillStyle=solid;size=6;pointerEvents=1;points=[];fillColor=none;resizable=0;rotatable=0;perimeter=centerPerimeter;snapToPoint=1;" vertex="1" parent="1">
          <mxGeometry x="210" y="730" width="20" height="20" as="geometry" />
        </mxCell>
        <mxCell id="m3TGQQSKfFaG7IauIRE3-158" value="\(c\)" style="text;html=1;strokeColor=none;fillColor=none;align=center;verticalAlign=middle;whiteSpace=wrap;rounded=0;" vertex="1" parent="1">
          <mxGeometry x="220" y="730" width="20" height="20" as="geometry" />
        </mxCell>
        <mxCell id="m3TGQQSKfFaG7IauIRE3-159" value="\(b\)" style="text;html=1;strokeColor=none;fillColor=none;align=center;verticalAlign=middle;whiteSpace=wrap;rounded=0;" vertex="1" parent="1">
          <mxGeometry x="220" y="690" width="20" height="20" as="geometry" />
        </mxCell>
        <mxCell id="m3TGQQSKfFaG7IauIRE3-160" value="\(a\)" style="text;html=1;strokeColor=none;fillColor=none;align=center;verticalAlign=middle;whiteSpace=wrap;rounded=0;" vertex="1" parent="1">
          <mxGeometry x="220" y="660" width="20" height="20" as="geometry" />
        </mxCell>
        <mxCell id="m3TGQQSKfFaG7IauIRE3-164" style="rounded=0;orthogonalLoop=1;jettySize=auto;html=1;jumpStyle=gap;jumpSize=8;endArrow=none;endFill=0;exitX=0.373;exitY=0.597;exitDx=0;exitDy=0;exitPerimeter=0;entryX=0.207;entryY=0.923;entryDx=0;entryDy=0;entryPerimeter=0;" edge="1" source="m3TGQQSKfFaG7IauIRE3-155" target="m3TGQQSKfFaG7IauIRE3-148" parent="1">
          <mxGeometry relative="1" as="geometry">
            <mxPoint x="90" y="750" as="sourcePoint" />
            <mxPoint x="140" y="690" as="targetPoint" />
          </mxGeometry>
        </mxCell>
        <mxCell id="m3TGQQSKfFaG7IauIRE3-165" style="rounded=0;orthogonalLoop=1;jettySize=auto;html=1;jumpStyle=gap;jumpSize=8;endArrow=none;endFill=0;exitX=0.44;exitY=0.377;exitDx=0;exitDy=0;exitPerimeter=0;entryX=0.513;entryY=0.703;entryDx=0;entryDy=0;entryPerimeter=0;" edge="1" source="m3TGQQSKfFaG7IauIRE3-156" target="m3TGQQSKfFaG7IauIRE3-147" parent="1">
          <mxGeometry relative="1" as="geometry">
            <mxPoint x="220" y="690" as="sourcePoint" />
            <mxPoint x="150" y="700" as="targetPoint" />
          </mxGeometry>
        </mxCell>
        <mxCell id="m3TGQQSKfFaG7IauIRE3-166" style="rounded=0;orthogonalLoop=1;jettySize=auto;html=1;jumpStyle=gap;jumpSize=8;endArrow=none;endFill=0;exitX=0.347;exitY=0.557;exitDx=0;exitDy=0;exitPerimeter=0;entryX=0.38;entryY=0.037;entryDx=0;entryDy=0;entryPerimeter=0;" edge="1" source="m3TGQQSKfFaG7IauIRE3-157" target="m3TGQQSKfFaG7IauIRE3-149" parent="1">
          <mxGeometry relative="1" as="geometry">
            <mxPoint x="220" y="720" as="sourcePoint" />
            <mxPoint x="150" y="670" as="targetPoint" />
          </mxGeometry>
        </mxCell>
        <mxCell id="m3TGQQSKfFaG7IauIRE3-167" style="rounded=0;orthogonalLoop=1;jettySize=auto;html=1;jumpStyle=gap;jumpSize=8;endArrow=none;endFill=0;exitX=0.293;exitY=0.917;exitDx=0;exitDy=0;exitPerimeter=0;entryX=0.42;entryY=0.35;entryDx=0;entryDy=0;entryPerimeter=0;" edge="1" source="m3TGQQSKfFaG7IauIRE3-155" target="m3TGQQSKfFaG7IauIRE3-150" parent="1">
          <mxGeometry relative="1" as="geometry">
            <mxPoint x="220" y="750" as="sourcePoint" />
            <mxPoint x="150" y="730" as="targetPoint" />
          </mxGeometry>
        </mxCell>
        <mxCell id="m3TGQQSKfFaG7IauIRE3-168" value="" style="shape=waypoint;sketch=0;fillStyle=solid;size=6;pointerEvents=1;points=[];fillColor=none;resizable=0;rotatable=0;perimeter=centerPerimeter;snapToPoint=1;" vertex="1" parent="1">
          <mxGeometry x="270" y="650" width="20" height="20" as="geometry" />
        </mxCell>
        <mxCell id="m3TGQQSKfFaG7IauIRE3-169" value="" style="shape=waypoint;sketch=0;fillStyle=solid;size=6;pointerEvents=1;points=[];fillColor=none;resizable=0;rotatable=0;perimeter=centerPerimeter;snapToPoint=1;" vertex="1" parent="1">
          <mxGeometry x="270" y="680" width="20" height="20" as="geometry" />
        </mxCell>
        <mxCell id="m3TGQQSKfFaG7IauIRE3-170" value="" style="shape=waypoint;sketch=0;fillStyle=solid;size=6;pointerEvents=1;points=[];fillColor=none;resizable=0;rotatable=0;perimeter=centerPerimeter;snapToPoint=1;" vertex="1" parent="1">
          <mxGeometry x="270" y="710" width="20" height="20" as="geometry" />
        </mxCell>
        <mxCell id="m3TGQQSKfFaG7IauIRE3-171" value="" style="shape=waypoint;sketch=0;fillStyle=solid;size=6;pointerEvents=1;points=[];fillColor=none;resizable=0;rotatable=0;perimeter=centerPerimeter;snapToPoint=1;" vertex="1" parent="1">
          <mxGeometry x="270" y="740" width="20" height="20" as="geometry" />
        </mxCell>
        <mxCell id="m3TGQQSKfFaG7IauIRE3-180" value="\(1\)" style="text;html=1;strokeColor=none;fillColor=none;align=center;verticalAlign=middle;whiteSpace=wrap;rounded=0;" vertex="1" parent="1">
          <mxGeometry x="290" y="650" width="20" height="20" as="geometry" />
        </mxCell>
        <mxCell id="m3TGQQSKfFaG7IauIRE3-181" value="\(2\)" style="text;html=1;strokeColor=none;fillColor=none;align=center;verticalAlign=middle;whiteSpace=wrap;rounded=0;" vertex="1" parent="1">
          <mxGeometry x="290" y="680" width="20" height="20" as="geometry" />
        </mxCell>
        <mxCell id="m3TGQQSKfFaG7IauIRE3-182" value="\(3\)" style="text;html=1;strokeColor=none;fillColor=none;align=center;verticalAlign=middle;whiteSpace=wrap;rounded=0;" vertex="1" parent="1">
          <mxGeometry x="290" y="710" width="20" height="20" as="geometry" />
        </mxCell>
        <mxCell id="m3TGQQSKfFaG7IauIRE3-183" value="\(4\)" style="text;html=1;strokeColor=none;fillColor=none;align=center;verticalAlign=middle;whiteSpace=wrap;rounded=0;" vertex="1" parent="1">
          <mxGeometry x="290" y="740" width="20" height="20" as="geometry" />
        </mxCell>
        <mxCell id="m3TGQQSKfFaG7IauIRE3-184" style="rounded=0;orthogonalLoop=1;jettySize=auto;html=1;jumpStyle=gap;jumpSize=8;endArrow=none;endFill=0;entryX=0.5;entryY=1;entryDx=0;entryDy=0;entryPerimeter=0;exitX=0.289;exitY=0.525;exitDx=0;exitDy=0;exitPerimeter=0;" edge="1" parent="1" source="m3TGQQSKfFaG7IauIRE3-170" target="m3TGQQSKfFaG7IauIRE3-155">
          <mxGeometry relative="1" as="geometry">
            <mxPoint x="260" y="720" as="sourcePoint" />
            <mxPoint x="150" y="700" as="targetPoint" />
          </mxGeometry>
        </mxCell>
        <mxCell id="m3TGQQSKfFaG7IauIRE3-185" style="rounded=0;orthogonalLoop=1;jettySize=auto;html=1;jumpStyle=gap;jumpSize=8;endArrow=none;endFill=0;entryX=0.584;entryY=0.681;entryDx=0;entryDy=0;entryPerimeter=0;exitX=0.47;exitY=1.009;exitDx=0;exitDy=0;exitPerimeter=0;" edge="1" parent="1" source="m3TGQQSKfFaG7IauIRE3-171" target="m3TGQQSKfFaG7IauIRE3-156">
          <mxGeometry relative="1" as="geometry">
            <mxPoint x="300" y="730" as="sourcePoint" />
            <mxPoint x="220" y="690" as="targetPoint" />
          </mxGeometry>
        </mxCell>
        <mxCell id="m3TGQQSKfFaG7IauIRE3-186" style="rounded=0;orthogonalLoop=1;jettySize=auto;html=1;jumpStyle=gap;jumpSize=8;endArrow=none;endFill=0;entryX=0.355;entryY=0.919;entryDx=0;entryDy=0;entryPerimeter=0;exitX=0.133;exitY=0.483;exitDx=0;exitDy=0;exitPerimeter=0;" edge="1" parent="1" source="m3TGQQSKfFaG7IauIRE3-168" target="m3TGQQSKfFaG7IauIRE3-157">
          <mxGeometry relative="1" as="geometry">
            <mxPoint x="300" y="760" as="sourcePoint" />
            <mxPoint x="220" y="720" as="targetPoint" />
          </mxGeometry>
        </mxCell>
        <mxCell id="m3TGQQSKfFaG7IauIRE3-187" value="" style="shape=waypoint;sketch=0;fillStyle=solid;size=6;pointerEvents=1;points=[];fillColor=none;resizable=0;rotatable=0;perimeter=centerPerimeter;snapToPoint=1;" vertex="1" parent="1">
          <mxGeometry x="140" y="800" width="20" height="20" as="geometry" />
        </mxCell>
        <mxCell id="m3TGQQSKfFaG7IauIRE3-188" value="" style="shape=waypoint;sketch=0;fillStyle=solid;size=6;pointerEvents=1;points=[];fillColor=none;resizable=0;rotatable=0;perimeter=centerPerimeter;snapToPoint=1;" vertex="1" parent="1">
          <mxGeometry x="140" y="830" width="20" height="20" as="geometry" />
        </mxCell>
        <mxCell id="m3TGQQSKfFaG7IauIRE3-189" value="" style="shape=waypoint;sketch=0;fillStyle=solid;size=6;pointerEvents=1;points=[];fillColor=none;resizable=0;rotatable=0;perimeter=centerPerimeter;snapToPoint=1;" vertex="1" parent="1">
          <mxGeometry x="140" y="860" width="20" height="20" as="geometry" />
        </mxCell>
        <mxCell id="m3TGQQSKfFaG7IauIRE3-190" value="" style="shape=waypoint;sketch=0;fillStyle=solid;size=6;pointerEvents=1;points=[];fillColor=none;resizable=0;rotatable=0;perimeter=centerPerimeter;snapToPoint=1;" vertex="1" parent="1">
          <mxGeometry x="140" y="890" width="20" height="20" as="geometry" />
        </mxCell>
        <mxCell id="m3TGQQSKfFaG7IauIRE3-191" value="\(1\)" style="text;html=1;strokeColor=none;fillColor=none;align=center;verticalAlign=middle;whiteSpace=wrap;rounded=0;" vertex="1" parent="1">
          <mxGeometry x="120" y="800" width="30" height="20" as="geometry" />
        </mxCell>
        <mxCell id="m3TGQQSKfFaG7IauIRE3-192" value="\(2\)" style="text;html=1;strokeColor=none;fillColor=none;align=center;verticalAlign=middle;whiteSpace=wrap;rounded=0;" vertex="1" parent="1">
          <mxGeometry x="120" y="830" width="30" height="20" as="geometry" />
        </mxCell>
        <mxCell id="m3TGQQSKfFaG7IauIRE3-193" value="\(3\)" style="text;html=1;strokeColor=none;fillColor=none;align=center;verticalAlign=middle;whiteSpace=wrap;rounded=0;" vertex="1" parent="1">
          <mxGeometry x="120" y="860" width="30" height="20" as="geometry" />
        </mxCell>
        <mxCell id="m3TGQQSKfFaG7IauIRE3-194" value="\(4\)" style="text;html=1;strokeColor=none;fillColor=none;align=center;verticalAlign=middle;whiteSpace=wrap;rounded=0;" vertex="1" parent="1">
          <mxGeometry x="120" y="890" width="30" height="20" as="geometry" />
        </mxCell>
        <mxCell id="m3TGQQSKfFaG7IauIRE3-195" value="" style="shape=waypoint;sketch=0;fillStyle=solid;size=6;pointerEvents=1;points=[];fillColor=none;resizable=0;rotatable=0;perimeter=centerPerimeter;snapToPoint=1;" vertex="1" parent="1">
          <mxGeometry x="210" y="820" width="20" height="20" as="geometry" />
        </mxCell>
        <mxCell id="m3TGQQSKfFaG7IauIRE3-196" value="" style="shape=waypoint;sketch=0;fillStyle=solid;size=6;pointerEvents=1;points=[];fillColor=none;resizable=0;rotatable=0;perimeter=centerPerimeter;snapToPoint=1;" vertex="1" parent="1">
          <mxGeometry x="210" y="850" width="20" height="20" as="geometry" />
        </mxCell>
        <mxCell id="m3TGQQSKfFaG7IauIRE3-197" value="" style="shape=waypoint;sketch=0;fillStyle=solid;size=6;pointerEvents=1;points=[];fillColor=none;resizable=0;rotatable=0;perimeter=centerPerimeter;snapToPoint=1;" vertex="1" parent="1">
          <mxGeometry x="210" y="880" width="20" height="20" as="geometry" />
        </mxCell>
        <mxCell id="m3TGQQSKfFaG7IauIRE3-198" value="\(c\)" style="text;html=1;strokeColor=none;fillColor=none;align=center;verticalAlign=middle;whiteSpace=wrap;rounded=0;" vertex="1" parent="1">
          <mxGeometry x="220" y="880" width="20" height="20" as="geometry" />
        </mxCell>
        <mxCell id="m3TGQQSKfFaG7IauIRE3-199" value="\(b\)" style="text;html=1;strokeColor=none;fillColor=none;align=center;verticalAlign=middle;whiteSpace=wrap;rounded=0;" vertex="1" parent="1">
          <mxGeometry x="220" y="840" width="20" height="20" as="geometry" />
        </mxCell>
        <mxCell id="m3TGQQSKfFaG7IauIRE3-200" value="\(a\)" style="text;html=1;strokeColor=none;fillColor=none;align=center;verticalAlign=middle;whiteSpace=wrap;rounded=0;" vertex="1" parent="1">
          <mxGeometry x="220" y="810" width="20" height="20" as="geometry" />
        </mxCell>
        <mxCell id="m3TGQQSKfFaG7IauIRE3-201" style="rounded=0;orthogonalLoop=1;jettySize=auto;html=1;jumpStyle=gap;jumpSize=8;endArrow=none;endFill=0;exitX=0.3;exitY=0.55;exitDx=0;exitDy=0;exitPerimeter=0;entryX=0.207;entryY=0.923;entryDx=0;entryDy=0;entryPerimeter=0;" edge="1" source="m3TGQQSKfFaG7IauIRE3-196" target="m3TGQQSKfFaG7IauIRE3-188" parent="1">
          <mxGeometry relative="1" as="geometry">
            <mxPoint x="90" y="900" as="sourcePoint" />
            <mxPoint x="140" y="840" as="targetPoint" />
          </mxGeometry>
        </mxCell>
        <mxCell id="m3TGQQSKfFaG7IauIRE3-202" style="rounded=0;orthogonalLoop=1;jettySize=auto;html=1;jumpStyle=gap;jumpSize=8;endArrow=none;endFill=0;exitX=0.44;exitY=0.377;exitDx=0;exitDy=0;exitPerimeter=0;entryX=0.513;entryY=0.703;entryDx=0;entryDy=0;entryPerimeter=0;" edge="1" source="m3TGQQSKfFaG7IauIRE3-196" target="m3TGQQSKfFaG7IauIRE3-187" parent="1">
          <mxGeometry relative="1" as="geometry">
            <mxPoint x="220" y="840" as="sourcePoint" />
            <mxPoint x="150" y="850" as="targetPoint" />
          </mxGeometry>
        </mxCell>
        <mxCell id="m3TGQQSKfFaG7IauIRE3-203" style="rounded=0;orthogonalLoop=1;jettySize=auto;html=1;jumpStyle=gap;jumpSize=8;endArrow=none;endFill=0;exitX=0.347;exitY=0.557;exitDx=0;exitDy=0;exitPerimeter=0;entryX=0.38;entryY=0.037;entryDx=0;entryDy=0;entryPerimeter=0;" edge="1" source="m3TGQQSKfFaG7IauIRE3-197" target="m3TGQQSKfFaG7IauIRE3-189" parent="1">
          <mxGeometry relative="1" as="geometry">
            <mxPoint x="220" y="870" as="sourcePoint" />
            <mxPoint x="150" y="820" as="targetPoint" />
          </mxGeometry>
        </mxCell>
        <mxCell id="m3TGQQSKfFaG7IauIRE3-204" style="rounded=0;orthogonalLoop=1;jettySize=auto;html=1;jumpStyle=gap;jumpSize=8;endArrow=none;endFill=0;exitX=0.293;exitY=0.917;exitDx=0;exitDy=0;exitPerimeter=0;entryX=0.42;entryY=0.35;entryDx=0;entryDy=0;entryPerimeter=0;" edge="1" source="m3TGQQSKfFaG7IauIRE3-195" target="m3TGQQSKfFaG7IauIRE3-190" parent="1">
          <mxGeometry relative="1" as="geometry">
            <mxPoint x="220" y="900" as="sourcePoint" />
            <mxPoint x="150" y="880" as="targetPoint" />
          </mxGeometry>
        </mxCell>
        <mxCell id="m3TGQQSKfFaG7IauIRE3-205" value="" style="shape=waypoint;sketch=0;fillStyle=solid;size=6;pointerEvents=1;points=[];fillColor=none;resizable=0;rotatable=0;perimeter=centerPerimeter;snapToPoint=1;" vertex="1" parent="1">
          <mxGeometry x="270" y="800" width="20" height="20" as="geometry" />
        </mxCell>
        <mxCell id="m3TGQQSKfFaG7IauIRE3-206" value="" style="shape=waypoint;sketch=0;fillStyle=solid;size=6;pointerEvents=1;points=[];fillColor=none;resizable=0;rotatable=0;perimeter=centerPerimeter;snapToPoint=1;" vertex="1" parent="1">
          <mxGeometry x="270" y="830" width="20" height="20" as="geometry" />
        </mxCell>
        <mxCell id="m3TGQQSKfFaG7IauIRE3-207" value="" style="shape=waypoint;sketch=0;fillStyle=solid;size=6;pointerEvents=1;points=[];fillColor=none;resizable=0;rotatable=0;perimeter=centerPerimeter;snapToPoint=1;" vertex="1" parent="1">
          <mxGeometry x="270" y="860" width="20" height="20" as="geometry" />
        </mxCell>
        <mxCell id="m3TGQQSKfFaG7IauIRE3-208" value="" style="shape=waypoint;sketch=0;fillStyle=solid;size=6;pointerEvents=1;points=[];fillColor=none;resizable=0;rotatable=0;perimeter=centerPerimeter;snapToPoint=1;" vertex="1" parent="1">
          <mxGeometry x="270" y="890" width="20" height="20" as="geometry" />
        </mxCell>
        <mxCell id="m3TGQQSKfFaG7IauIRE3-209" value="\(1\)" style="text;html=1;strokeColor=none;fillColor=none;align=center;verticalAlign=middle;whiteSpace=wrap;rounded=0;" vertex="1" parent="1">
          <mxGeometry x="290" y="800" width="20" height="20" as="geometry" />
        </mxCell>
        <mxCell id="m3TGQQSKfFaG7IauIRE3-210" value="\(2\)" style="text;html=1;strokeColor=none;fillColor=none;align=center;verticalAlign=middle;whiteSpace=wrap;rounded=0;" vertex="1" parent="1">
          <mxGeometry x="290" y="830" width="20" height="20" as="geometry" />
        </mxCell>
        <mxCell id="m3TGQQSKfFaG7IauIRE3-211" value="\(3\)" style="text;html=1;strokeColor=none;fillColor=none;align=center;verticalAlign=middle;whiteSpace=wrap;rounded=0;" vertex="1" parent="1">
          <mxGeometry x="290" y="860" width="20" height="20" as="geometry" />
        </mxCell>
        <mxCell id="m3TGQQSKfFaG7IauIRE3-212" value="\(4\)" style="text;html=1;strokeColor=none;fillColor=none;align=center;verticalAlign=middle;whiteSpace=wrap;rounded=0;" vertex="1" parent="1">
          <mxGeometry x="290" y="890" width="20" height="20" as="geometry" />
        </mxCell>
        <mxCell id="m3TGQQSKfFaG7IauIRE3-213" style="rounded=0;orthogonalLoop=1;jettySize=auto;html=1;jumpStyle=gap;jumpSize=8;endArrow=none;endFill=0;entryX=0.5;entryY=1;entryDx=0;entryDy=0;entryPerimeter=0;exitX=0.289;exitY=0.525;exitDx=0;exitDy=0;exitPerimeter=0;" edge="1" source="m3TGQQSKfFaG7IauIRE3-207" target="m3TGQQSKfFaG7IauIRE3-195" parent="1">
          <mxGeometry relative="1" as="geometry">
            <mxPoint x="260" y="870" as="sourcePoint" />
            <mxPoint x="150" y="850" as="targetPoint" />
          </mxGeometry>
        </mxCell>
        <mxCell id="m3TGQQSKfFaG7IauIRE3-214" style="rounded=0;orthogonalLoop=1;jettySize=auto;html=1;jumpStyle=gap;jumpSize=8;endArrow=none;endFill=0;entryX=0.584;entryY=0.681;entryDx=0;entryDy=0;entryPerimeter=0;exitX=0.47;exitY=1.009;exitDx=0;exitDy=0;exitPerimeter=0;" edge="1" source="m3TGQQSKfFaG7IauIRE3-208" target="m3TGQQSKfFaG7IauIRE3-196" parent="1">
          <mxGeometry relative="1" as="geometry">
            <mxPoint x="300" y="880" as="sourcePoint" />
            <mxPoint x="220" y="840" as="targetPoint" />
          </mxGeometry>
        </mxCell>
        <mxCell id="m3TGQQSKfFaG7IauIRE3-215" style="rounded=0;orthogonalLoop=1;jettySize=auto;html=1;jumpStyle=gap;jumpSize=8;endArrow=none;endFill=0;entryX=0.355;entryY=0.919;entryDx=0;entryDy=0;entryPerimeter=0;exitX=0.322;exitY=0.476;exitDx=0;exitDy=0;exitPerimeter=0;" edge="1" source="m3TGQQSKfFaG7IauIRE3-205" target="m3TGQQSKfFaG7IauIRE3-197" parent="1">
          <mxGeometry relative="1" as="geometry">
            <mxPoint x="300" y="910" as="sourcePoint" />
            <mxPoint x="220" y="870" as="targetPoint" />
          </mxGeometry>
        </mxCell>
        <mxCell id="m3TGQQSKfFaG7IauIRE3-216" value="" style="endArrow=open;html=1;rounded=0;endFill=0;midArrow=classic;" edge="1" parent="1">
          <mxGeometry width="50" height="50" relative="1" as="geometry">
            <mxPoint x="174" y="286" as="sourcePoint" />
            <mxPoint x="186" y="294" as="targetPoint" />
          </mxGeometry>
        </mxCell>
        <mxCell id="m3TGQQSKfFaG7IauIRE3-217" value="" style="endArrow=open;html=1;rounded=0;endFill=0;midArrow=classic;" edge="1" parent="1">
          <mxGeometry width="50" height="50" relative="1" as="geometry">
            <mxPoint x="180" y="320" as="sourcePoint" />
            <mxPoint x="192" y="328" as="targetPoint" />
          </mxGeometry>
        </mxCell>
        <mxCell id="m3TGQQSKfFaG7IauIRE3-218" value="" style="endArrow=open;html=1;rounded=0;endFill=0;midArrow=classic;" edge="1" parent="1">
          <mxGeometry width="50" height="50" relative="1" as="geometry">
            <mxPoint x="180" y="420" as="sourcePoint" />
            <mxPoint x="192" y="428" as="targetPoint" />
          </mxGeometry>
        </mxCell>
        <mxCell id="m3TGQQSKfFaG7IauIRE3-219" value="" style="endArrow=open;html=1;rounded=0;endFill=0;midArrow=classic;" edge="1" parent="1">
          <mxGeometry width="50" height="50" relative="1" as="geometry">
            <mxPoint x="180" y="450" as="sourcePoint" />
            <mxPoint x="192" y="458" as="targetPoint" />
          </mxGeometry>
        </mxCell>
        <mxCell id="m3TGQQSKfFaG7IauIRE3-220" value="" style="endArrow=open;html=1;rounded=0;endFill=0;midArrow=classic;" edge="1" parent="1">
          <mxGeometry width="50" height="50" relative="1" as="geometry">
            <mxPoint x="168" y="552" as="sourcePoint" />
            <mxPoint x="180" y="560" as="targetPoint" />
          </mxGeometry>
        </mxCell>
        <mxCell id="m3TGQQSKfFaG7IauIRE3-221" value="" style="endArrow=open;html=1;rounded=0;endFill=0;midArrow=classic;" edge="1" parent="1">
          <mxGeometry width="50" height="50" relative="1" as="geometry">
            <mxPoint x="174" y="586" as="sourcePoint" />
            <mxPoint x="186" y="594" as="targetPoint" />
          </mxGeometry>
        </mxCell>
        <mxCell id="m3TGQQSKfFaG7IauIRE3-223" value="" style="endArrow=open;html=1;rounded=0;endFill=0;midArrow=classic;" edge="1" parent="1">
          <mxGeometry width="50" height="50" relative="1" as="geometry">
            <mxPoint x="253" y="732" as="sourcePoint" />
            <mxPoint x="265" y="740" as="targetPoint" />
          </mxGeometry>
        </mxCell>
        <mxCell id="m3TGQQSKfFaG7IauIRE3-224" value="" style="endArrow=open;html=1;rounded=0;endFill=0;midArrow=classic;" edge="1" parent="1">
          <mxGeometry width="50" height="50" relative="1" as="geometry">
            <mxPoint x="256" y="704" as="sourcePoint" />
            <mxPoint x="268" y="712" as="targetPoint" />
          </mxGeometry>
        </mxCell>
        <mxCell id="m3TGQQSKfFaG7IauIRE3-225" value="" style="endArrow=open;html=1;rounded=0;endFill=0;midArrow=classic;" edge="1" parent="1">
          <mxGeometry width="50" height="50" relative="1" as="geometry">
            <mxPoint x="253" y="852" as="sourcePoint" />
            <mxPoint x="265" y="860" as="targetPoint" />
          </mxGeometry>
        </mxCell>
        <mxCell id="m3TGQQSKfFaG7IauIRE3-226" value="" style="endArrow=open;html=1;rounded=0;endFill=0;midArrow=classic;" edge="1" parent="1">
          <mxGeometry width="50" height="50" relative="1" as="geometry">
            <mxPoint x="253" y="882" as="sourcePoint" />
            <mxPoint x="265" y="890" as="targetPoint" />
          </mxGeometry>
        </mxCell>
        <mxCell id="m3TGQQSKfFaG7IauIRE3-227" value="" style="endArrow=open;html=1;rounded=0;endFill=0;midArrow=classic;" edge="1" parent="1">
          <mxGeometry width="50" height="50" relative="1" as="geometry">
            <mxPoint x="180" y="305" as="sourcePoint" />
            <mxPoint x="186" y="300" as="targetPoint" />
          </mxGeometry>
        </mxCell>
        <mxCell id="m3TGQQSKfFaG7IauIRE3-228" value="" style="endArrow=open;html=1;rounded=0;endFill=0;midArrow=classic;" edge="1" parent="1">
          <mxGeometry width="50" height="50" relative="1" as="geometry">
            <mxPoint x="180" y="575" as="sourcePoint" />
            <mxPoint x="186" y="570" as="targetPoint" />
          </mxGeometry>
        </mxCell>
        <mxCell id="m3TGQQSKfFaG7IauIRE3-229" value="" style="endArrow=open;html=1;rounded=0;endFill=0;midArrow=classic;" edge="1" parent="1">
          <mxGeometry width="50" height="50" relative="1" as="geometry">
            <mxPoint x="189" y="408" as="sourcePoint" />
            <mxPoint x="195" y="400" as="targetPoint" />
          </mxGeometry>
        </mxCell>
        <mxCell id="m3TGQQSKfFaG7IauIRE3-230" value="" style="endArrow=open;html=1;rounded=0;endFill=0;midArrow=classic;" edge="1" parent="1">
          <mxGeometry width="50" height="50" relative="1" as="geometry">
            <mxPoint x="256" y="842" as="sourcePoint" />
            <mxPoint x="262" y="834" as="targetPoint" />
          </mxGeometry>
        </mxCell>
        <mxCell id="m3TGQQSKfFaG7IauIRE3-231" value="" style="endArrow=open;html=1;rounded=0;endFill=0;midArrow=classic;" edge="1" parent="1">
          <mxGeometry width="50" height="50" relative="1" as="geometry">
            <mxPoint x="256" y="692" as="sourcePoint" />
            <mxPoint x="262" y="684" as="targetPoint" />
          </mxGeometry>
        </mxCell>
        <mxCell id="m3TGQQSKfFaG7IauIRE3-234" value="" style="endArrow=open;html=1;rounded=0;endFill=0;midArrow=classic;" edge="1" parent="1">
          <mxGeometry width="50" height="50" relative="1" as="geometry">
            <mxPoint x="252" y="410" as="sourcePoint" />
            <mxPoint x="259" y="415" as="targetPoint" />
          </mxGeometry>
        </mxCell>
        <mxCell id="m3TGQQSKfFaG7IauIRE3-235" value="" style="endArrow=open;html=1;rounded=0;endFill=0;midArrow=classic;" edge="1" parent="1">
          <mxGeometry width="50" height="50" relative="1" as="geometry">
            <mxPoint x="252" y="280" as="sourcePoint" />
            <mxPoint x="259" y="285" as="targetPoint" />
          </mxGeometry>
        </mxCell>
        <mxCell id="m3TGQQSKfFaG7IauIRE3-236" value="" style="endArrow=open;html=1;rounded=0;endFill=0;midArrow=classic;" edge="1" parent="1">
          <mxGeometry width="50" height="50" relative="1" as="geometry">
            <mxPoint x="206" y="700" as="sourcePoint" />
            <mxPoint x="213" y="705" as="targetPoint" />
          </mxGeometry>
        </mxCell>
        <mxCell id="m3TGQQSKfFaG7IauIRE3-237" value="" style="endArrow=open;html=1;rounded=0;endFill=0;midArrow=classic;" edge="1" parent="1">
          <mxGeometry width="50" height="50" relative="1" as="geometry">
            <mxPoint x="185" y="835" as="sourcePoint" />
            <mxPoint x="192" y="840" as="targetPoint" />
          </mxGeometry>
        </mxCell>
        <mxCell id="m3TGQQSKfFaG7IauIRE3-238" value="" style="endArrow=open;html=1;rounded=0;endFill=0;midArrow=classic;" edge="1" parent="1">
          <mxGeometry width="50" height="50" relative="1" as="geometry">
            <mxPoint x="231" y="407" as="sourcePoint" />
            <mxPoint x="238" y="406" as="targetPoint" />
          </mxGeometry>
        </mxCell>
        <mxCell id="m3TGQQSKfFaG7IauIRE3-239" value="" style="endArrow=open;html=1;rounded=0;endFill=0;midArrow=classic;" edge="1" parent="1">
          <mxGeometry width="50" height="50" relative="1" as="geometry">
            <mxPoint x="231" y="277" as="sourcePoint" />
            <mxPoint x="238" y="276" as="targetPoint" />
          </mxGeometry>
        </mxCell>
        <mxCell id="m3TGQQSKfFaG7IauIRE3-240" value="" style="endArrow=open;html=1;rounded=0;endFill=0;midArrow=classic;" edge="1" parent="1">
          <mxGeometry width="50" height="50" relative="1" as="geometry">
            <mxPoint x="238" y="546" as="sourcePoint" />
            <mxPoint x="245" y="545" as="targetPoint" />
          </mxGeometry>
        </mxCell>
        <mxCell id="m3TGQQSKfFaG7IauIRE3-241" value="" style="endArrow=open;html=1;rounded=0;endFill=0;midArrow=classic;" edge="1" parent="1">
          <mxGeometry width="50" height="50" relative="1" as="geometry">
            <mxPoint x="164" y="688" as="sourcePoint" />
            <mxPoint x="171" y="687" as="targetPoint" />
          </mxGeometry>
        </mxCell>
        <mxCell id="m3TGQQSKfFaG7IauIRE3-244" value="" style="endArrow=open;html=1;rounded=0;endFill=0;midArrow=classic;" edge="1" parent="1">
          <mxGeometry width="50" height="50" relative="1" as="geometry">
            <mxPoint x="252" y="452" as="sourcePoint" />
            <mxPoint x="263" y="455" as="targetPoint" />
          </mxGeometry>
        </mxCell>
        <mxCell id="m3TGQQSKfFaG7IauIRE3-245" value="" style="endArrow=open;html=1;rounded=0;endFill=0;midArrow=classic;" edge="1" parent="1">
          <mxGeometry width="50" height="50" relative="1" as="geometry">
            <mxPoint x="245" y="320" as="sourcePoint" />
            <mxPoint x="256" y="323" as="targetPoint" />
          </mxGeometry>
        </mxCell>
        <mxCell id="m3TGQQSKfFaG7IauIRE3-246" value="" style="endArrow=open;html=1;rounded=0;endFill=0;midArrow=classic;" edge="1" parent="1">
          <mxGeometry width="50" height="50" relative="1" as="geometry">
            <mxPoint x="245" y="590" as="sourcePoint" />
            <mxPoint x="256" y="593" as="targetPoint" />
          </mxGeometry>
        </mxCell>
        <mxCell id="m3TGQQSKfFaG7IauIRE3-247" value="" style="endArrow=open;html=1;rounded=0;endFill=0;midArrow=classic;" edge="1" parent="1">
          <mxGeometry width="50" height="50" relative="1" as="geometry">
            <mxPoint x="185" y="880" as="sourcePoint" />
            <mxPoint x="196" y="883" as="targetPoint" />
          </mxGeometry>
        </mxCell>
        <mxCell id="m3TGQQSKfFaG7IauIRE3-248" value="" style="endArrow=open;html=1;rounded=0;endFill=0;midArrow=classic;" edge="1" parent="1">
          <mxGeometry width="50" height="50" relative="1" as="geometry">
            <mxPoint x="178" y="848" as="sourcePoint" />
            <mxPoint x="189" y="851" as="targetPoint" />
          </mxGeometry>
        </mxCell>
        <mxCell id="m3TGQQSKfFaG7IauIRE3-249" value="" style="endArrow=open;html=1;rounded=0;endFill=0;midArrow=classic;" edge="1" parent="1">
          <mxGeometry width="50" height="50" relative="1" as="geometry">
            <mxPoint x="185" y="730" as="sourcePoint" />
            <mxPoint x="196" y="733" as="targetPoint" />
          </mxGeometry>
        </mxCell>
        <mxCell id="m3TGQQSKfFaG7IauIRE3-250" value="" style="endArrow=open;html=1;rounded=0;endFill=0;midArrow=classic;" edge="1" parent="1">
          <mxGeometry width="50" height="50" relative="1" as="geometry">
            <mxPoint x="245" y="305" as="sourcePoint" />
            <mxPoint x="250" y="300" as="targetPoint" />
          </mxGeometry>
        </mxCell>
        <mxCell id="m3TGQQSKfFaG7IauIRE3-251" value="" style="endArrow=open;html=1;rounded=0;endFill=0;midArrow=classic;" edge="1" parent="1">
          <mxGeometry width="50" height="50" relative="1" as="geometry">
            <mxPoint x="240" y="440" as="sourcePoint" />
            <mxPoint x="245" y="435" as="targetPoint" />
          </mxGeometry>
        </mxCell>
        <mxCell id="m3TGQQSKfFaG7IauIRE3-252" value="" style="endArrow=open;html=1;rounded=0;endFill=0;midArrow=classic;" edge="1" parent="1">
          <mxGeometry width="50" height="50" relative="1" as="geometry">
            <mxPoint x="245" y="575" as="sourcePoint" />
            <mxPoint x="250" y="570" as="targetPoint" />
          </mxGeometry>
        </mxCell>
        <mxCell id="m3TGQQSKfFaG7IauIRE3-253" value="" style="endArrow=open;html=1;rounded=0;endFill=0;midArrow=classic;" edge="1" parent="1">
          <mxGeometry width="50" height="50" relative="1" as="geometry">
            <mxPoint x="190" y="710" as="sourcePoint" />
            <mxPoint x="195" y="705" as="targetPoint" />
          </mxGeometry>
        </mxCell>
        <mxCell id="m3TGQQSKfFaG7IauIRE3-254" value="" style="endArrow=open;html=1;rounded=0;endFill=0;midArrow=classic;" edge="1" parent="1">
          <mxGeometry width="50" height="50" relative="1" as="geometry">
            <mxPoint x="185" y="865" as="sourcePoint" />
            <mxPoint x="190" y="860" as="targetPoint" />
          </mxGeometry>
        </mxCell>
        <mxCell id="m3TGQQSKfFaG7IauIRE3-255" value="" style="endArrow=open;html=1;rounded=0;endFill=0;midArrow=classic;" edge="1" parent="1">
          <mxGeometry width="50" height="50" relative="1" as="geometry">
            <mxPoint x="238" y="558" as="sourcePoint" />
            <mxPoint x="245" y="560" as="targetPoint" />
          </mxGeometry>
        </mxCell>
      </root>
    </mxGraphModel>
  </diagram>
</mxfile>
